<?xml version="1.0" standalone="no"?>
<!DOCTYPE svg PUBLIC "-//W3C//DTD SVG 20010904//EN"
 "http://www.w3.org/TR/2001/REC-SVG-20010904/DTD/svg10.dtd">
<svg version="1.0" xmlns="http://www.w3.org/2000/svg"
 width="600.000000pt" height="306.000000pt" viewBox="0 0 600.000000 306.000000"
 preserveAspectRatio="xMidYMid meet">
<metadata>
Created by potrace 1.10, written by Peter Selinger 2001-2011
</metadata>
<g transform="translate(0.000000,306.000000) scale(0.100000,-0.100000)"
fill="#000000" stroke="none">
<path d="M1846 2868 c-7 -13 -17 -43 -20 -67 -5 -31 -16 -53 -40 -77 -45 -45
-148 -95 -216 -105 -289 -41 -348 -61 -423 -150 -42 -48 -72 -128 -64 -169 9
-41 -10 -52 -69 -41 -58 12 -285 28 -509 37 -147 6 -162 5 -181 -12 -35 -31
-56 -85 -60 -149 -2 -33 -11 -177 -19 -320 -8 -143 -20 -327 -26 -410 -5 -82
-14 -229 -19 -325 -22 -425 -31 -568 -39 -608 -6 -28 -5 -56 3 -80 34 -111 61
-121 366 -133 129 -5 267 -14 305 -19 39 -5 138 -9 220 -10 83 0 182 -5 220
-11 39 -5 171 -14 295 -19 124 -4 232 -11 240 -14 9 -4 121 -11 250 -16 129
-5 281 -14 338 -21 101 -13 104 -13 146 11 69 37 86 83 86 228 0 64 7 185 15
267 8 83 15 202 15 265 0 63 7 183 15 265 8 83 15 200 15 260 0 61 7 182 15
270 21 232 20 363 -4 398 -35 54 -54 60 -210 68 -80 5 -265 16 -411 24 -146 9
-339 20 -430 26 -91 5 -229 11 -307 13 -78 2 -146 7 -152 11 -29 17 7 121 58
168 33 30 106 57 155 57 36 0 115 16 222 46 28 8 60 14 70 14 11 0 29 7 40 15
10 8 26 15 35 15 25 0 126 97 148 143 21 44 40 117 41 155 0 20 -5 22 -50 22
-41 0 -52 -4 -64 -22z m-681 -663 c0 -27 -4 -30 -32 -33 -32 -3 -33 -2 -33 33
0 35 1 36 33 33 28 -3 32 -6 32 -33z m-336 -36 c30 -5 99 -9 153 -9 l98 0 0
-110 0 -109 -38 -10 c-57 -16 -137 -71 -176 -123 -47 -62 -106 -189 -143 -313
-57 -188 -84 -568 -48 -690 28 -97 71 -179 113 -217 42 -38 133 -88 160 -88 9
0 35 -7 57 -15 52 -19 198 -19 250 0 22 8 50 15 63 15 25 0 108 57 160 111 19
19 48 63 65 99 28 60 36 91 54 210 8 61 -16 405 -33 455 -8 22 -14 51 -14 65
0 28 -25 110 -46 153 -8 16 -14 34 -14 41 0 7 -11 33 -25 57 -13 24 -29 55
-35 68 -6 13 -39 52 -74 86 -46 45 -76 66 -110 76 -27 8 -52 21 -56 29 -5 9
-8 58 -7 110 l2 95 65 -3 c36 -1 97 -7 136 -13 40 -5 170 -14 290 -20 121 -5
253 -13 294 -19 41 -5 136 -9 210 -10 196 -2 419 -23 431 -41 5 -8 7 -39 4
-69 -15 -154 -30 -394 -65 -1025 -5 -99 -12 -205 -16 -235 -3 -30 -9 -141 -13
-247 -5 -162 -9 -195 -23 -209 -16 -16 -28 -16 -145 -5 -70 7 -166 15 -213 17
-47 3 -161 9 -255 14 -93 6 -291 17 -440 25 -148 8 -378 22 -510 31 -132 9
-329 20 -437 23 -185 6 -199 7 -219 28 -21 20 -21 25 -9 85 6 35 16 155 21
268 5 113 13 250 18 305 6 55 10 154 11 220 0 66 5 154 11 195 5 41 14 176 20
300 11 258 18 366 24 397 5 22 5 22 203 17 108 -3 221 -10 251 -15z m333 -285
c15 -33 1 -57 -38 -64 -36 -6 -40 -26 -48 -227 l-6 -153 23 -5 c14 -4 39 -5
58 -3 l34 3 -2 198 -2 197 24 0 c15 0 36 -15 59 -41 62 -73 98 -141 156 -294
51 -134 79 -401 60 -573 -14 -135 -33 -183 -100 -252 -69 -71 -166 -95 -315
-80 -110 11 -181 46 -227 109 -61 84 -68 117 -68 313 0 99 5 189 10 204 6 15
15 62 20 103 14 114 30 174 77 286 39 91 141 225 172 225 23 0 41 20 41 45 0
28 8 35 37 35 15 0 27 -9 35 -26z"/>
<path d="M2952 1694 c-43 -30 -19 -71 34 -58 55 14 55 14 54 -399 -1 -228 2
-383 8 -389 16 -16 153 -48 206 -48 68 0 140 35 194 94 65 71 85 124 85 231 1
83 -2 95 -31 150 -24 45 -45 69 -84 94 -74 49 -114 47 -201 -7 -97 -60 -99
-58 -97 137 2 193 3 177 -16 195 -21 22 -122 22 -152 0z m385 -379 c131 -53
150 -298 32 -413 -30 -29 -39 -32 -95 -32 -63 0 -104 12 -136 38 -16 13 -18
35 -18 176 0 89 4 166 8 171 14 21 63 46 114 60 29 7 54 14 55 14 2 1 20 -6
40 -14z"/>
<path d="M3660 1693 c-30 -7 -61 -20 -68 -27 -20 -20 12 -47 52 -44 17 1 37
-2 44 -6 17 -10 17 -717 0 -734 -7 -7 -21 -12 -33 -12 -12 0 -29 -6 -39 -13
-16 -11 -17 -17 -7 -36 11 -19 17 -21 44 -15 18 5 73 8 122 9 89 0 90 0 90 25
0 19 -6 26 -25 28 -14 2 -33 11 -42 19 -17 15 -18 47 -18 398 0 351 -1 383
-17 397 -29 24 -45 26 -103 11z"/>
<path d="M5021 1400 l-47 -51 -65 30 c-71 34 -128 39 -173 16 -15 -8 -35 -15
-43 -15 -8 0 -36 -22 -63 -49 -39 -39 -50 -58 -55 -94 -14 -95 15 -156 106
-219 l24 -17 -62 -62 c-35 -34 -63 -68 -63 -75 0 -17 32 -34 64 -34 46 0 39
-21 -28 -89 -47 -48 -66 -74 -66 -92 0 -84 154 -153 284 -127 84 16 141 43
193 91 55 51 74 86 76 143 3 67 -5 72 -173 104 -118 22 -167 30 -198 30 -47 0
-52 25 -14 63 28 28 37 31 84 29 174 -8 296 138 233 279 -22 48 -10 66 46 75
44 7 58 33 42 81 -16 47 -48 42 -102 -17z m-141 -80 c97 -49 118 -161 44 -235
-33 -33 -38 -35 -105 -35 -79 0 -117 19 -144 70 -17 34 -20 104 -5 147 23 65
132 93 210 53z m41 -532 c60 -13 93 -26 108 -42 l22 -23 -34 -35 c-92 -95
-290 -129 -362 -62 -21 19 -26 31 -20 51 9 37 75 114 110 129 32 13 45 12 176
-18z"/>
<path d="M5689 1400 l-49 -51 -32 16 c-18 9 -41 20 -51 26 -40 22 -105 22
-164 0 -66 -25 -87 -40 -126 -93 -24 -31 -29 -46 -29 -102 0 -78 23 -124 83
-162 22 -13 39 -30 39 -36 0 -7 -27 -37 -61 -68 -59 -53 -60 -56 -44 -77 11
-16 26 -23 50 -23 19 0 36 -4 40 -9 3 -6 -21 -35 -53 -66 -81 -77 -90 -96 -67
-138 25 -46 72 -76 149 -94 59 -13 73 -13 137 2 82 18 134 43 183 86 63 55 96
160 64 201 -18 22 -186 60 -336 75 -65 6 -76 12 -67 36 14 35 65 58 133 61 75
3 128 24 173 69 59 58 74 138 40 206 -24 47 -16 63 41 76 37 9 43 15 46 39 11
89 -29 99 -99 26z m-145 -80 c58 -28 86 -74 86 -139 0 -46 -4 -56 -37 -91 -37
-39 -40 -40 -108 -42 -85 -2 -114 14 -146 79 -24 50 -21 117 7 161 34 51 128
67 198 32z m41 -531 c86 -22 125 -41 125 -63 0 -21 -72 -82 -127 -106 -69 -32
-209 -34 -250 -4 -46 34 -42 69 13 132 70 79 77 81 239 41z"/>
<path d="M4115 1389 c-64 -26 -109 -70 -143 -139 -23 -47 -26 -67 -26 -145 0
-77 4 -98 27 -147 81 -167 284 -211 405 -88 51 53 76 115 80 199 8 151 -51
265 -164 317 -63 29 -112 30 -179 3z m173 -77 c52 -37 76 -103 80 -214 3 -86
1 -103 -19 -144 -34 -68 -60 -84 -133 -84 -54 0 -66 4 -99 31 -59 48 -81 107
-82 214 0 78 3 97 26 139 34 64 76 89 145 83 31 -2 63 -12 82 -25z"/>
</g>
</svg>
